<?xml version="1.0" encoding="UTF-8"?>
<svg version="1.1" xmlns="http://www.w3.org/2000/svg" width="790" height="316">
<path d="M0 0 C0.88558594 0.32097656 1.77117187 0.64195313 2.68359375 0.97265625 C5 2 5 2 7.5 4.5625 C10.23899141 7.23301662 11.25584408 7.78636948 15 8 C17.16631386 6.73606005 17.16631386 6.73606005 19.125 4.8125 C30.66142118 -4.86881828 45.66669283 -5.1123582 60 -4 C74.14221484 -1.96566247 86.43374162 5.77083746 95.125 17 C103.96061794 31.47479573 103.61572681 48.53364627 103.56640625 64.984375 C103.57165506 67.14146185 103.57793609 69.2985464 103.58518982 71.45562744 C103.59550938 75.93667554 103.59114625 80.41740426 103.57641602 84.8984375 C103.55909836 90.63498845 103.58292693 96.37054981 103.61790562 102.10699081 C103.6398522 106.54399217 103.63844711 110.98075463 103.6301403 115.41779327 C103.62932203 117.53407133 103.63616172 119.65036712 103.65091133 121.76659393 C103.66833903 124.71448951 103.65383716 127.66057567 103.63110352 130.60839844 C103.64864182 131.9081813 103.64864182 131.9081813 103.66653442 133.23422241 C103.60053072 137.4426483 103.28805467 140.18300199 100.61949158 143.53668213 C97.74860693 146.23640506 96.6739713 146.77233163 92.8125 146.875 C91.85601562 146.90980469 90.89953125 146.94460937 89.9140625 146.98046875 C88.95242187 146.98691406 87.99078125 146.99335938 87 147 C86.10023438 147.03738281 85.20046875 147.07476562 84.2734375 147.11328125 C79.49289328 147.2504872 75.36372781 147.18186391 71 145 C68.01022717 142.15785627 66.75340962 140.01243498 66.49447632 135.95988464 C66.47133829 134.34475748 66.4699306 132.72922821 66.48583984 131.11401367 C66.47871475 130.22880539 66.47158966 129.34359711 66.46424866 128.43156433 C66.44497716 125.51013832 66.4532471 122.58943722 66.4609375 119.66796875 C66.45102876 117.6316065 66.43908683 115.59525321 66.42520142 113.55891418 C66.39282415 108.19766435 66.38244689 102.83661873 66.37835693 97.47528076 C66.3696065 88.9051084 66.33397223 80.33510412 66.2861824 71.76506996 C66.27363842 68.77830813 66.27435216 65.79176015 66.27645874 62.80497742 C66.26987394 60.96137328 66.2628668 59.11777058 66.25537109 57.27416992 C66.25949509 56.45051941 66.26361908 55.6268689 66.26786804 54.77825928 C66.22498589 48.58136722 65.76842954 41.15679832 62 36 C57.85448115 33.88117925 54.17896841 33.67149011 49.5625 33.625 C47.64630859 33.58246094 47.64630859 33.58246094 45.69140625 33.5390625 C41.45375603 34.06820824 39.38202551 35.47966877 36 38 C35.34 38 34.68 38 34 38 C32.36286422 44.24225536 31.71618886 50.02280702 31.76049805 56.46362305 C31.75848389 57.36238159 31.75646973 58.26114014 31.75439453 59.18713379 C31.75087209 61.121886 31.75158739 63.05664978 31.75617027 64.99139977 C31.76180038 68.05615263 31.75254637 71.12053228 31.7389679 74.18525696 C31.70198056 82.89281016 31.68332866 91.60023159 31.69458008 100.30786133 C31.70043254 105.64820638 31.68217264 110.98801996 31.64869118 116.32825661 C31.64074576 118.35798469 31.64200248 120.38777083 31.65271568 122.41748619 C31.66705196 125.25376668 31.65076582 128.08837244 31.62768555 130.92456055 C31.63945328 131.75846817 31.65122101 132.59237579 31.66334534 133.45155334 C31.59755794 137.57884434 31.24093475 140.22620482 28.63337708 143.516922 C25.61926493 146.35900475 24.38614786 146.77710192 20.3125 146.875 C19.26449219 146.90851563 18.21648437 146.94203125 17.13671875 146.9765625 C16.10160156 146.98429688 15.06648438 146.99203125 14 147 C13.07832031 147.04898438 12.15664062 147.09796875 11.20703125 147.1484375 C6.02874555 147.35212196 2.41830106 147.01737633 -2 144 C-4.76914383 141.36760912 -5.00792095 139.91849062 -5.38526917 136.03544617 C-5.40558937 134.39703979 -5.40951819 132.75838134 -5.40063477 131.11987305 C-5.41110336 129.77523987 -5.41110336 129.77523987 -5.42178345 128.40344238 C-5.44178129 125.43943916 -5.44126011 122.4757835 -5.44140625 119.51171875 C-5.45317815 117.44911256 -5.46654191 115.38651489 -5.48143005 113.32392883 C-5.51765124 107.88999081 -5.53782471 102.45612826 -5.55297852 97.02209473 C-5.57778317 88.33506028 -5.61756525 79.64819283 -5.67487907 70.96131325 C-5.69116947 67.93076785 -5.69498283 64.90038048 -5.69789124 61.86979675 C-5.70767237 60.00263195 -5.71793644 58.1354696 -5.72875977 56.26831055 C-5.72620682 55.43014297 -5.72365387 54.5919754 -5.72102356 53.72840881 C-5.77562071 47.44063708 -6.22180002 42.04492998 -10.5 37.125 C-14.51173968 33.71502127 -17.65752356 33.72538932 -22.75 33.625 C-23.45382813 33.58761719 -24.15765625 33.55023438 -24.8828125 33.51171875 C-28.76498522 33.44677534 -31.27375169 33.79280432 -34.390625 36.2109375 C-38.11880081 40.19584398 -39.23403192 43.59723869 -39.31884766 48.99755859 C-39.33872742 49.9737616 -39.35860718 50.9499646 -39.37908936 51.95574951 C-39.39063049 53.00933655 -39.40217163 54.06292358 -39.4140625 55.1484375 C-39.43333801 56.25777649 -39.45261353 57.36711548 -39.47247314 58.5100708 C-39.53258182 62.13163408 -39.57874799 65.75323568 -39.625 69.375 C-39.66486455 71.86378024 -39.70539556 74.35254988 -39.74658203 76.84130859 C-39.92462539 88.2753699 -40.03361836 99.70529934 -39.953125 111.140625 C-39.94501297 112.5052739 -39.94501297 112.5052739 -39.93673706 113.89749146 C-39.90948119 118.09302079 -39.86444175 122.28701778 -39.78759766 126.48193359 C-39.77206468 127.95930578 -39.75690387 129.43668195 -39.7421875 130.9140625 C-39.7201123 132.1717041 -39.69803711 133.4293457 -39.67529297 134.72509766 C-40.03003949 138.30296973 -40.91797543 140.11224038 -43 143 C-43.4125 143.5775 -43.825 144.155 -44.25 144.75 C-50.11573626 148.93981161 -61.54508396 147.60057742 -68.2890625 146.69140625 C-71.10188934 146.01513086 -72.82450516 145.17549484 -74.875 143.125 C-77.31990065 138.50685434 -77.1482322 133.85846056 -77.14526367 128.73754883 C-77.14862228 127.90595749 -77.1519809 127.07436615 -77.15544128 126.21757507 C-77.16494813 123.46404527 -77.16689523 120.71057646 -77.16796875 117.95703125 C-77.17118494 116.0304919 -77.17454928 114.10395279 -77.17805481 112.17741394 C-77.18404783 108.12974483 -77.18589487 104.08209706 -77.18530273 100.03442383 C-77.18520188 94.89299488 -77.19877272 89.75170644 -77.21607494 84.61031055 C-77.22730419 80.62325945 -77.22921851 76.63624093 -77.22869301 72.64917564 C-77.22985988 70.75690928 -77.23420738 68.8646417 -77.24202538 66.97239113 C-77.27632706 57.80094425 -77.1601957 48.72534252 -76.12231445 39.60424805 C-76.04630855 38.92711919 -75.97030264 38.24999033 -75.89199352 37.55234241 C-74.42117933 26.1206321 -68.90542612 15.13443993 -60.1875 7.5546875 C-42.69039123 -5.43948887 -20.25992485 -8.47514414 0 0 Z " fill="#144C35" transform="translate(160,90)"/>
<path d="M0 0 C1.1707457 -0.00407867 1.1707457 -0.00407867 2.36514282 -0.00823975 C20.62455483 -0.00105732 38.12549558 3.83774417 51.953125 16.6640625 C64.13776543 29.82533442 69.99826792 46.0650466 69.97802734 63.88012695 C69.98474457 64.75137711 69.99146179 65.62262726 69.99838257 66.52027893 C70.01718711 69.36383959 70.0212763 72.20716253 70.0234375 75.05078125 C70.02987239 77.04233392 70.03660126 79.03388566 70.04360962 81.0254364 C70.05553454 85.18177485 70.05929486 89.33803043 70.05810547 93.49438477 C70.05790134 98.8185865 70.08532153 104.1422601 70.11964989 109.46633625 C70.14187355 113.57128853 70.14594458 117.67611211 70.14488602 121.78111839 C70.14724426 123.74472072 70.15608032 125.70832648 70.17155075 127.67186928 C70.19114006 130.4122423 70.1854031 133.15145412 70.17333984 135.8918457 C70.18457886 136.69972534 70.19581787 137.50760498 70.20739746 138.33996582 C70.16504379 142.12497589 69.84186072 144.32112641 67.78213501 147.54191589 C63.80102428 151.3822838 59.7889563 150.95197466 54.5 151.25 C53.66146484 151.30994141 52.82292969 151.36988281 51.95898438 151.43164062 C45.77220076 151.78420519 40.5354967 151.5860766 35.3125 147.875 C29.60617693 139.75446333 32.6875 115.39377611 32.6875 111.5625 C11.5675 111.5625 -9.5525 111.5625 -31.3125 111.5625 C-31.15453231 122.1980444 -31.15453231 122.1980444 -30.95214844 132.83276367 C-30.94045763 134.17365237 -30.93026672 135.51455534 -30.921875 136.85546875 C-30.90141113 137.54241821 -30.88094727 138.22936768 -30.85986328 138.93713379 C-30.85731273 142.46900785 -31.23422751 144.43653219 -33.11425781 147.4621582 C-37.47168079 151.62552003 -43.00224555 151.6756487 -48.75 151.8125 C-61.28990582 151.51641889 -61.28990582 151.51641889 -65.4044342 147.54159546 C-67.88019457 143.67614884 -67.86790215 140.41430104 -67.81420898 135.97119141 C-67.81961197 135.11673431 -67.82501495 134.26227722 -67.83058167 133.38192749 C-67.84307831 130.55895224 -67.82655792 127.73699605 -67.80859375 124.9140625 C-67.80874886 122.93932034 -67.8102398 120.96457788 -67.81300354 118.98983765 C-67.81438844 114.84546485 -67.80182531 110.70143768 -67.77905273 106.55712891 C-67.75085391 101.28425196 -67.75335348 96.0119572 -67.76614285 90.73903847 C-67.77315686 86.6550921 -67.76524298 82.57127633 -67.75288582 78.48734665 C-67.74841344 76.54598876 -67.74799704 74.60461661 -67.75195122 72.6632576 C-67.76699586 58.761273 -67.53773747 44.80796967 -61.125 32.125 C-60.59519531 31.05378906 -60.06539062 29.98257813 -59.51953125 28.87890625 C-59.12121094 28.11449219 -58.72289062 27.35007812 -58.3125 26.5625 C-57.6525 26.5625 -56.9925 26.5625 -56.3125 26.5625 C-56.02375 25.985 -55.735 25.4075 -55.4375 24.8125 C-55.06625 24.07 -54.695 23.3275 -54.3125 22.5625 C-54.03277344 21.91539063 -53.75304687 21.26828125 -53.46484375 20.6015625 C-51.37547938 16.90444995 -47.73213103 14.95743323 -44.3125 12.5625 C-43.67570313 12.06492187 -43.03890625 11.56734375 -42.3828125 11.0546875 C-29.19970317 1.25712376 -15.87719607 -0.00360677 0 0 Z M-22.3125 41.5625 C-22.3125 42.2225 -22.3125 42.8825 -22.3125 43.5625 C-22.92738281 43.79195312 -23.54226563 44.02140625 -24.17578125 44.2578125 C-26.9522088 45.9531083 -27.40005759 47.41153597 -28.5 50.4375 C-28.82355469 51.30117187 -29.14710938 52.16484375 -29.48046875 53.0546875 C-32.43026559 61.94562444 -31.3125 66.10291154 -31.3125 77.5625 C-10.1925 77.5625 10.9275 77.5625 32.6875 77.5625 C33.75945921 59.830588 33.75945921 59.830588 27.33203125 43.8359375 C19.6873443 36.82659987 11.10064567 37.07094899 1.3125 37.125 C0.03632812 37.10501953 -1.23984375 37.08503906 -2.5546875 37.06445312 C-10.03097877 37.06831485 -15.81518897 37.72278329 -22.3125 41.5625 Z " fill="#144E36" transform="translate(648.3125,85.4375)"/>
<path d="M0 0 C1.41925781 -0.01836914 1.41925781 -0.01836914 2.8671875 -0.03710938 C11.75977932 -0.05584377 11.75977932 -0.05584377 15.625 2.1875 C19.85740286 6.73733308 21.55838784 11.44864078 23.40722656 17.32910156 C25.5140054 24.00951722 27.92866804 30.56219057 30.375 37.125 C30.80393555 38.27822754 31.23287109 39.43145508 31.67480469 40.61962891 C33.82876478 46.40008909 35.99522894 52.17579393 38.16796875 57.94921875 C38.57112305 59.02115479 38.97427734 60.09309082 39.38964844 61.19750977 C40.14754677 63.21042085 40.90719098 65.22267584 41.66894531 67.23413086 C43.2748922 71.49303901 44.83306602 75.75228019 46.25 80.078125 C47.23554098 83.08450925 48.32381712 85.95263065 49.6875 88.8125 C51.39311743 92.53384713 52.52822812 96.23912125 53.625 100.1875 C54.56010328 102.55549787 55.58173975 104.86387491 56.625 107.1875 C57.285 107.1875 57.945 107.1875 58.625 107.1875 C58.99625 105.269375 58.99625 105.269375 59.375 103.3125 C60.56275768 98.00058369 62.51681547 93.19184623 64.625 88.1875 C68.35661475 79.14509439 71.76259236 70.05100636 74.94848633 60.80322266 C77.14301296 54.46908909 79.52349344 48.22819653 81.99316406 41.99707031 C84.56691682 35.45436549 86.89040908 28.83425497 89.140625 22.17382812 C89.94061159 19.83377074 90.77248869 17.50890848 91.625 15.1875 C91.90553223 14.40262207 92.18606445 13.61774414 92.47509766 12.80908203 C94.6407631 7.30578454 97.18121773 2.89700201 102.625 0.1875 C106.53503556 -0.61376053 110.2716533 -0.60854626 114.25 -0.5 C115.27351562 -0.51482422 116.29703125 -0.52964844 117.3515625 -0.54492188 C122.06624152 -0.49274118 124.78867773 -0.40004286 128.7109375 2.35546875 C130.78329341 5.42170964 131.98479291 7.53241694 132.625 11.1875 C132.03649898 13.82270901 131.39846393 16.01509922 130.4375 18.5 C129.95560777 19.83068521 129.47383642 21.1614142 128.9921875 22.4921875 C128.54101562 23.71164063 128.08984375 24.93109375 127.625 26.1875 C127.09628064 27.83081694 126.57380594 29.47618195 126.0625 31.125 C125.1239367 33.97801913 123.97321974 36.53721401 122.5625 39.1875 C120.6327788 42.83415945 119.7986366 46.34841695 119.1171875 50.40234375 C118.95476562 50.99144531 118.79234375 51.58054688 118.625 52.1875 C117.635 52.6825 117.635 52.6825 116.625 53.1875 C115.59227005 55.46394916 115.59227005 55.46394916 114.671875 58.26171875 C114.30296143 59.31480225 113.93404785 60.36788574 113.55395508 61.45288086 C113.1648999 62.58218018 112.77584473 63.71147949 112.375 64.875 C109.91404594 71.88455756 107.46822918 78.84002538 104.4375 85.625 C102.2086755 90.63222216 100.42232099 95.66466968 98.75 100.875 C95.6307654 110.56932683 91.71503749 119.86845322 87.625 129.1875 C87.11042236 130.37980225 87.11042236 130.37980225 86.58544922 131.59619141 C82.68386314 140.55314712 79.11116309 146.08716026 69.9921875 150.27734375 C61.99570138 153.35190029 52.75314359 153.39295646 44.7734375 150.1953125 C44.06445312 149.86273438 43.35546875 149.53015625 42.625 149.1875 C41.49964844 148.68863281 41.49964844 148.68863281 40.3515625 148.1796875 C26.2769478 140.5419273 20.97646892 117.12465735 16.04296875 103.05859375 C14.34804562 98.34103688 12.44538671 93.70741379 10.5625 89.0625 C8.45147332 83.85272742 6.37762631 78.6774881 4.6875 73.3125 C2.52629817 66.52015139 -0.28320744 59.99635166 -3.01391602 53.41845703 C-5.65664479 47.02615474 -8.09229833 40.61772718 -10.3046875 34.0625 C-11.4540644 30.97512262 -12.88838225 28.12515156 -14.375 25.1875 C-19.32738095 12.67956349 -19.32738095 12.67956349 -17.625 6.4375 C-13.56312041 -0.87388326 -7.51803471 0.00507975 0 0 Z " fill="#144D36" transform="translate(447.375,85.8125)"/>
<path d="M0 0 C0.07476562 0.72703125 0.14953125 1.4540625 0.2265625 2.203125 C1.62434033 12.89201428 5.61975342 23.76671873 14 31 C25.94927953 39.29330029 38.2335899 41.92115142 52.6875 39.375 C62.40769823 36.81143124 71.01520091 30.04983821 76.5 21.72265625 C79.65031621 15.93770058 81.13073952 10.02300135 82.421875 3.58984375 C83 1 83 1 84 0 C86.59359322 -0.08851529 89.16039691 -0.11525945 91.75390625 -0.09765625 C92.52935287 -0.0962413 93.3047995 -0.09482635 94.10374451 -0.09336853 C96.59003494 -0.08775345 99.0762366 -0.07519846 101.5625 -0.0625 C103.24413933 -0.05748694 104.92578006 -0.0529237 106.60742188 -0.04882812 C110.73831566 -0.03777913 114.86914276 -0.02050445 119 0 C119.46504921 20.0281195 112.87729845 37.2796881 99 52 C83.18738347 68.34418008 63.760508 76.94952937 41 77.4375 C19.37448779 77.43105808 -0.07509265 68.66453085 -15.42480469 53.64160156 C-27.35975905 41.20349971 -35.46034445 24.3030296 -36.6875 7.0625 C-36.77386719 5.93972656 -36.86023438 4.81695312 -36.94921875 3.66015625 C-36.96597656 2.78230469 -36.98273438 1.90445313 -37 1 C-34.31451352 -1.68548648 -26.62554029 -0.49672906 -23 -0.625 C-21.18822266 -0.70234375 -21.18822266 -0.70234375 -19.33984375 -0.78125 C-12.75885699 -1.02472503 -6.52023583 -0.94149957 0 0 Z " fill="#82D3AA" transform="translate(312,164)"/>
<path d="M0 0 C1.60312266 1.56329352 3.18865426 3.14498026 4.75 4.75 C5.45125 5.43320313 6.1525 6.11640625 6.875 6.8203125 C8.59863976 8.59422509 10.06519198 10.36449741 11.5 12.375 C11.92796875 12.96539062 12.3559375 13.55578125 12.796875 14.1640625 C13.75 15.75 13.75 15.75 13.75 17.75 C14.41 17.75 15.07 17.75 15.75 17.75 C22.12935531 31.36511723 25.75 42.40058273 25.75 57.75 C13.87 57.75 1.99 57.75 -10.25 57.75 C-10.91 54.45 -11.57 51.15 -12.25 47.75 C-14.80312302 37.6793481 -19.93276865 29.57011593 -28.6875 23.75 C-39.38067642 17.65006215 -49.66696743 15.8092506 -61.9296875 18.58203125 C-66.81012235 20.0594418 -71.52834291 21.83020536 -76.25 23.75 C-76.25 24.41 -76.25 25.07 -76.25 25.75 C-76.95125 26.100625 -77.6525 26.45125 -78.375 26.8125 C-82.91107822 29.86942228 -86.36778408 34.74944004 -87.921875 40.03515625 C-88.03015625 40.60105469 -88.1384375 41.16695312 -88.25 41.75 C-88.91 41.75 -89.57 41.75 -90.25 41.75 C-90.45496094 42.82121094 -90.65992188 43.89242187 -90.87109375 44.99609375 C-91.14302709 46.39326851 -91.41517352 47.79040181 -91.6875 49.1875 C-91.82220703 49.89455078 -91.95691406 50.60160156 -92.09570312 51.33007812 C-93.13671875 56.63671875 -93.13671875 56.63671875 -94.25 57.75 C-96.84359322 57.83851529 -99.41039691 57.86525945 -102.00390625 57.84765625 C-102.77935287 57.8462413 -103.5547995 57.84482635 -104.35374451 57.84336853 C-106.84003494 57.83775345 -109.3262366 57.82519846 -111.8125 57.8125 C-113.49413933 57.80748694 -115.17578006 57.8029237 -116.85742188 57.79882812 C-120.98831566 57.78777913 -125.11914276 57.77050445 -129.25 57.75 C-129.55265053 37.094101 -121.58614107 18.60759002 -107.45141602 3.66870117 C-79.94074877 -23.94413396 -29.29204642 -26.37451192 0 0 Z " fill="#144D36" transform="translate(405.25,100.25)"/>
<path d="M0 0 C0.66 0.33 1.32 0.66 2 1 C3.97106545 1.0913666 5.94527916 1.11751968 7.91845703 1.11352539 C9.15959259 1.11344986 10.40072815 1.11337433 11.67947388 1.11329651 C13.03892049 1.1081895 14.39836669 1.1029735 15.7578125 1.09765625 C17.14500884 1.09579142 18.53220584 1.09436782 19.91940308 1.09336853 C23.57234512 1.08954848 27.22524748 1.07972255 30.87817383 1.06866455 C34.60497501 1.05843944 38.33178259 1.05386855 42.05859375 1.04882812 C49.37241394 1.03809983 56.68620141 1.02102954 64 1 C63.67 1.99 63.34 2.98 63 4 C31.32 3.505 31.32 3.505 -1 3 C-0.84203231 13.6355444 -0.84203231 13.6355444 -0.63964844 24.27026367 C-0.62795763 25.61115237 -0.61776672 26.95205534 -0.609375 28.29296875 C-0.58891113 28.97991821 -0.56844727 29.66686768 -0.54736328 30.37463379 C-0.54476484 33.97281904 -0.91699112 35.8716278 -2.890625 38.92382812 C-6.07887942 42.06189706 -8.6685319 42.20589752 -13 43 C-13.495 41.515 -13.495 41.515 -14 40 C-9.545 39.505 -9.545 39.505 -5 39 C-2.96643397 34.80305522 -2.80084264 31.47000044 -2.91015625 26.8359375 C-2.9305631 25.4531283 -2.95073854 24.07031566 -2.97070312 22.6875 C-3.01430613 20.52360834 -3.06287254 18.35995679 -3.11645508 16.19628906 C-3.16468424 14.09701368 -3.19457207 11.9980646 -3.22265625 9.8984375 C-3.25109619 8.64724121 -3.27953613 7.39604492 -3.30883789 6.10693359 C-3 3 -3 3 -1.48608398 1.06884766 C-0.99567627 0.71612793 -0.50526855 0.3634082 0 0 Z " fill="#1D3C30" transform="translate(618,194)"/>
<path d="M0 0 C2.57868479 2.57868479 2.25101608 4.32611705 2.29008484 7.84135437 C2.28910294 8.65852432 2.28812103 9.47569427 2.28710938 10.31762695 C2.29394241 11.17795532 2.30077545 12.03828369 2.30781555 12.92468262 C2.32142626 14.79678537 2.33046492 16.66892555 2.33552551 18.54107094 C2.34379435 21.50417236 2.36428177 24.46696255 2.38806152 27.42997742 C2.43636975 33.72410558 2.46923861 40.01826484 2.5 46.3125 C2.53565569 53.59486216 2.57760785 60.87707338 2.63594055 68.15929222 C2.65600744 71.07800163 2.66432961 73.99659548 2.67224121 76.9153595 C2.68521625 78.70830707 2.69873694 80.5012508 2.71289062 82.29418945 C2.71141777 83.51083534 2.71141777 83.51083534 2.70991516 84.75205994 C2.75659456 88.99979987 3.34345991 92.11722324 5 96 C3.625 98.3125 3.625 98.3125 2 100 C-0.01503271 96.97745094 -0.25233745 96.38853748 -0.28520203 93.00143433 C-0.29781067 92.1909967 -0.31041931 91.38055908 -0.32341003 90.54556274 C-0.32714127 89.66024872 -0.3308725 88.77493469 -0.3347168 87.86279297 C-0.34636871 86.92761841 -0.35802063 85.99244385 -0.37002563 85.02893066 C-0.4060552 81.93336795 -0.4278875 78.83788374 -0.44921875 75.7421875 C-0.47046251 73.59651992 -0.49242923 71.45085938 -0.51509094 69.3052063 C-0.56051562 64.80783178 -0.59930456 60.31046526 -0.63305664 55.81298828 C-0.67665267 50.03427411 -0.73337199 44.25578333 -0.7946043 38.47723198 C-0.8406765 34.04736684 -0.88151652 29.61746642 -0.92057228 25.18753433 C-0.93968198 23.05595889 -0.96004769 20.92439435 -0.98166466 18.79284286 C-1.01068235 15.82138237 -1.03307029 12.84994847 -1.0534668 9.87841797 C-1.06327072 8.98905548 -1.07307465 8.09969299 -1.08317566 7.18338013 C-1.09380271 5.12209435 -1.05269029 3.06063964 -1 1 C-0.67 0.67 -0.34 0.34 0 0 Z " fill="#1A3D2F" transform="translate(155,133)"/>
<path d="M0 0 C0.33 0 0.66 0 1 0 C1 31.02 1 62.04 1 94 C-0.485 94.495 -0.485 94.495 -2 95 C-2 94.34 -2 93.68 -2 93 C-2.99 92.67 -3.98 92.34 -5 92 C-3.515 91.505 -3.515 91.505 -2 91 C-1.98969254 89.93368851 -1.97938507 88.86737701 -1.96876526 87.76875305 C-1.87100337 77.71912739 -1.76826661 67.66956325 -1.66066074 57.62003803 C-1.60549961 52.45350054 -1.55209051 47.28695732 -1.50268555 42.12036133 C-1.45494154 37.13420432 -1.40259516 32.1481149 -1.34705925 27.1620388 C-1.32668115 25.25987621 -1.30796066 23.35769512 -1.29092598 21.45549965 C-1.26678123 18.79098451 -1.2367406 16.12659613 -1.20532227 13.4621582 C-1.1995668 12.67597107 -1.19381134 11.88978394 -1.18788147 11.07977295 C-1.13682834 7.26993293 -0.91577385 3.70528864 0 0 Z " fill="#1A3F2F" transform="translate(262,136)"/>
<path d="M0 0 C0.33 0 0.66 0 1 0 C2.42560603 14.6967889 2.07686228 29.44000762 2 44.1875 C1.97321554 49.3476545 1.95332399 54.50777026 1.9375 59.66796875 C1.92920166 60.82765671 1.92090332 61.98734467 1.91235352 63.18217468 C1.89304937 69.68005092 2.19203135 75.99959353 2.97875977 82.45307922 C3.00198032 85.23746071 2.44435662 86.65466519 1 89 C-0.60344035 85.79311929 -0.12922745 82.30817153 -0.11352539 78.78662109 C-0.11367142 77.9377684 -0.11381744 77.08891571 -0.1139679 76.21434021 C-0.11326966 73.40068023 -0.1054814 70.58708596 -0.09765625 67.7734375 C-0.09579175 65.82573482 -0.094368 63.87803168 -0.09336853 61.93032837 C-0.08954583 56.79779776 -0.07971765 51.66529533 -0.06866455 46.53277588 C-0.05844512 41.29789613 -0.05386977 36.06301184 -0.04882812 30.828125 C-0.03809517 20.55207093 -0.0210217 10.27603781 0 0 Z " fill="#1C3D31" transform="translate(227,140)"/>
<path d="M0 0 C0.99 0.495 0.99 0.495 2 1 C1.99777939 1.95498383 1.99555878 2.90996765 1.99327087 3.89389038 C1.97293357 12.92648579 1.95797706 21.95907651 1.94818783 30.99168968 C1.9429858 35.63460627 1.9359372 40.27750427 1.92456055 44.92041016 C1.91363595 49.40728562 1.90770301 53.89414329 1.90512276 58.38103104 C1.90328568 60.08649602 1.89969854 61.79196012 1.89426994 63.49741745 C1.81880786 75.35448299 1.81880786 75.35448299 2.88233948 87.15371704 C3 89 3 89 2 92 C-0.60680025 89.39319975 -0.23599965 87.58931355 -0.24884033 84.03964233 C-0.24164978 83.20526642 -0.23445923 82.3708905 -0.22705078 81.51123047 C-0.22734283 80.63311707 -0.22763489 79.75500366 -0.22793579 78.85028076 C-0.22653912 75.93915019 -0.21096213 73.02827353 -0.1953125 70.1171875 C-0.19158357 68.10222514 -0.18873603 66.08726096 -0.18673706 64.07229614 C-0.17909118 58.76217668 -0.1594345 53.45216618 -0.1373291 48.14208984 C-0.11689121 42.72625197 -0.10773975 37.31039655 -0.09765625 31.89453125 C-0.07618951 21.26297289 -0.04204207 10.6314955 0 0 Z " fill="#1A3B2E" transform="translate(581,140)"/>
<path d="M0 0 C20.46 0 40.92 0 62 0 C58.75929564 2.16046957 57.67298256 2.28410623 53.90625 2.4140625 C52.88515137 2.45289551 51.86405273 2.49172852 50.81201172 2.53173828 C49.71904785 2.56251465 48.62608398 2.59329102 47.5 2.625 C46.3773877 2.66222168 45.25477539 2.69944336 44.09814453 2.73779297 C29.33427089 3.19332554 14.7257801 3.23265125 0 2 C0 1.34 0 0.68 0 0 Z " fill="#1B4132" transform="translate(619,163)"/>
<path d="M0 0 C0.66 0 1.32 0 2 0 C2 29.04 2 58.08 2 88 C1.01 88 0.02 88 -1 88 C-0.83734146 87.34385208 -0.67468292 86.68770416 -0.50709534 86.01167297 C0.1236175 82.26582743 0.13147644 78.59856609 0.11352539 74.81323242 C0.11367142 74.00295593 0.11381744 73.19267944 0.1139679 72.35784912 C0.11327347 69.69036138 0.10550312 67.02294423 0.09765625 64.35546875 C0.0957904 62.5017348 0.09436728 60.64800036 0.09336853 58.79426575 C0.08955651 53.92317333 0.07973746 49.05211088 0.06866455 44.18103027 C0.05842215 39.20727951 0.05386485 34.2335239 0.04882812 29.25976562 C0.038114 19.50649727 0.02105338 9.75325113 0 0 Z " fill="#193529" transform="translate(716,142)"/>
<path d="M0 0 C0 0.66 0 1.32 0 2 C-0.66 2 -1.32 2 -2 2 C-2 2.66 -2 3.32 -2 4 C-2.63808594 4.10957031 -3.27617187 4.21914062 -3.93359375 4.33203125 C-4.75988281 4.49058594 -5.58617187 4.64914063 -6.4375 4.8125 C-7.26121094 4.96332031 -8.08492188 5.11414063 -8.93359375 5.26953125 C-9.61550781 5.51058594 -10.29742187 5.75164062 -11 6 C-11.33 6.99 -11.66 7.98 -12 9 C-15.84804479 12.11080256 -20.00994968 14.53218278 -25 15 C-25.33 14.34 -25.66 13.68 -26 13 C-6.72222222 0 -6.72222222 0 0 0 Z " fill="#194033" transform="translate(329,86)"/>
<path d="M0 0 C-0.639375 0.28875 -1.27875 0.5775 -1.9375 0.875 C-4.15206079 1.82823451 -4.15206079 1.82823451 -5 4 C-6.9609375 4.7109375 -6.9609375 4.7109375 -9.375 5.375 C-13.19299276 6.55906104 -14.89645853 7.49409754 -17 11 C-17.99 11.33 -18.98 11.66 -20 12 C-20.66 12.66 -21.32 13.32 -22 14 C-25 16 -25 16 -28 16 C-28 15.34 -28 14.68 -28 14 C-25.52547623 11.76146623 -22.7263982 9.91891254 -20 8 C-18.88431641 7.19755859 -18.88431641 7.19755859 -17.74609375 6.37890625 C-5.81830006 -1.93943335 -5.81830006 -1.93943335 0 0 Z " fill="#1B4431" transform="translate(624,90)"/>
<path d="M0 0 C1.16781006 0.00523682 2.33562012 0.01047363 3.53881836 0.01586914 C4.79887695 0.0190918 6.05893555 0.02231445 7.35717773 0.02563477 C8.6976732 0.03399136 10.03816799 0.04245632 11.37866211 0.05102539 C12.72306153 0.05603879 14.06746271 0.06060197 15.41186523 0.06469727 C18.71334151 0.07653051 22.01473014 0.09301568 25.31616211 0.11352539 C21.96496692 2.34765552 20.89838661 2.35200301 16.99194336 2.30883789 C15.44990234 2.29916992 15.44990234 2.29916992 13.87670898 2.28930664 C12.80485352 2.27254883 11.73299805 2.25579102 10.62866211 2.23852539 C9.54520508 2.22950195 8.46174805 2.22047852 7.34545898 2.21118164 C4.66880501 2.18759879 1.99259414 2.15468665 -0.68383789 2.11352539 C-0.70446289 3.39227539 -0.72508789 4.67102539 -0.74633789 5.98852539 C-0.75793945 6.70782227 -0.76954102 7.42711914 -0.78149414 8.16821289 C-0.81033031 10.19537943 -0.81033031 10.19537943 0.31616211 12.11352539 C0.03673756 13.79007268 -0.29212036 15.45960693 -0.68383789 17.11352539 C-0.02383789 17.44352539 0.63616211 17.77352539 1.31616211 18.11352539 C2.31616211 19.11352539 2.31616211 19.11352539 2.37866211 21.67602539 C2.35803711 22.48040039 2.33741211 23.28477539 2.31616211 24.11352539 C1.65616211 24.44352539 0.99616211 24.77352539 0.31616211 25.11352539 C-2.20579971 17.19868923 -3.6328712 9.44657984 -3.68383789 1.11352539 C-2.68383789 0.11352539 -2.68383789 0.11352539 0 0 Z " fill="#8EC2A7" transform="translate(278.683837890625,163.886474609375)"/>
<path d="M0 0 C0.66 0.33 1.32 0.66 2 1 C2 1.66 2 2.32 2 3 C1.01 3.495 1.01 3.495 0 4 C0 4.99 0 5.98 0 7 C-0.99 7 -1.98 7 -3 7 C-4.34766745 9.27418882 -5 10.70169274 -5 13.375 C-5 16.56524706 -5.8942081 19.02818427 -7 22 C-7.66 22 -8.32 22 -9 22 C-9.33 22.99 -9.66 23.98 -10 25 C-10.66 24.67 -11.32 24.34 -12 24 C-7.0620438 6.08120438 -7.0620438 6.08120438 0 0 Z " fill="#1A3F32" transform="translate(548,87)"/>
<path d="M0 0 C-2.67428959 2.67428959 -5.11591177 3.05430885 -8.75 4.0625 C-9.96171875 4.40410156 -11.1734375 4.74570313 -12.421875 5.09765625 C-19.03443538 6.76523425 -25.09227534 7.12889715 -31.875 7.0625 C-32.75414062 7.05798828 -33.63328125 7.05347656 -34.5390625 7.04882812 C-36.69273803 7.03712337 -38.84637817 7.01919069 -41 7 C-41 6.34 -41 5.68 -41 5 C-39.22496094 5.01740234 -39.22496094 5.01740234 -37.4140625 5.03515625 C-25.16737687 5.18862947 -25.16737687 5.18862947 -13 4 C-12.67 3.34 -12.34 2.68 -12 2 C-10.0625 1.4375 -10.0625 1.4375 -8 1 C-5.29120665 -0.35439668 -2.99066732 -0.06501451 0 0 Z " fill="#8BBFA8" transform="translate(384,234)"/>
<path d="M0 0 C0.66 0 1.32 0 2 0 C2.66 2.31 3.32 4.62 4 7 C4.66 7 5.32 7 6 7 C6.99 8.485 6.99 8.485 8 10 C11.08530883 10.51047318 11.08530883 10.51047318 14.5625 10.5625 C16.71187958 10.64018842 18.86153382 10.77015125 21 11 C21.33 11.66 21.66 12.32 22 13 C14.84967311 14.0646362 8.8969119 14.66630814 2.625 10.375 C0.2836656 6.95304972 0.27433061 4.11495922 0 0 Z " fill="#1C3F31" transform="translate(681,223)"/>
<path d="M0 0 C0.66 0 1.32 0 2 0 C2 2.64 2 5.28 2 8 C12.56 8 23.12 8 34 8 C34.66 6.02 35.32 4.04 36 2 C36.33 2 36.66 2 37 2 C37 4.64 37 7.28 37 10 C25.12 10 13.24 10 1 10 C0.67 6.7 0.34 3.4 0 0 Z " fill="#234838" transform="translate(394,148)"/>
<path d="M0 0 C0.33 0.66 0.66 1.32 1 2 C-3.625 5 -3.625 5 -7 5 C-7.33 5.99 -7.66 6.98 -8 8 C-9.55981038 10.10190841 -11.28362738 12.01957005 -13 14 C-15.31 13.34 -17.62 12.68 -20 12 C-19.67 10.68 -19.34 9.36 -19 8 C-18.2678125 8.23332031 -17.535625 8.46664062 -16.78125 8.70703125 C-13.9596154 9.28550399 -13.9596154 9.28550399 -11.71875 7.63671875 C-10.9865625 6.99347656 -10.254375 6.35023437 -9.5 5.6875 C-6.43615 3.02820766 -3.84686689 1.33421263 0 0 Z " fill="#173F30" transform="translate(189,89)"/>
<path d="M0 0 C0.66 0 1.32 0 2 0 C1.86722656 0.52464844 1.73445312 1.04929688 1.59765625 1.58984375 C-0.31695906 9.9889956 -0.62193532 18.42390121 -1 27 C-1.66 27 -2.32 27 -3 27 C-3.37559279 8.82548214 -3.37559279 8.82548214 -1 1 C-0.67 0.67 -0.34 0.34 0 0 Z " fill="#1C3F30" transform="translate(618,135)"/>
<path d="M0 0 C7.80165713 3.02950947 14.95925258 6.46712943 22 11 C20.1875 12.5625 20.1875 12.5625 18 14 C17.01 13.67 16.02 13.34 15 13 C14.87625 12.38125 14.7525 11.7625 14.625 11.125 C14.16744653 8.7965151 14.16744653 8.7965151 11.875 7.375 C8.64956755 5.83240187 5.45982626 4.8819165 2 4 C2 3.34 2 2.68 2 2 C1.34 2 0.68 2 0 2 C0 1.34 0 0.68 0 0 Z " fill="#1C402F" transform="translate(675,88)"/>
<path d="M0 0 C4.49850894 6.74776341 5.76835407 14.11746603 7 22 C6.01 21.67 5.02 21.34 4 21 C3.10843543 18.38792454 2.41845081 15.92844406 1.8125 13.25 C1.63525391 12.53328125 1.45800781 11.8165625 1.27539062 11.078125 C0.37997124 7.31667213 -0.22230424 3.89415701 0 0 Z " fill="#1D3D30" transform="translate(711,119)"/>
<path d="M0 0 C0.33 0 0.66 0 1 0 C0.85866501 1.77119803 0.71176792 3.54195287 0.5625 5.3125 C0.48128906 6.29863281 0.40007813 7.28476563 0.31640625 8.30078125 C0 11 0 11 -1 14 C-1.99 14.495 -1.99 14.495 -3 15 C-3.90725434 17.11327425 -3.90725434 17.11327425 -4.625 19.5625 C-4.88539063 20.38878906 -5.14578125 21.21507812 -5.4140625 22.06640625 C-5.60742188 22.70449219 -5.80078125 23.34257812 -6 24 C-6.66 23.67 -7.32 23.34 -8 23 C-7.51421457 19.87709365 -7.0013988 17.00419641 -6 14 C-5.34 14 -4.68 14 -4 14 C-3.5196682 12.41701974 -3.04078388 10.83360022 -2.5625 9.25 C-2.16224609 7.92742187 -2.16224609 7.92742187 -1.75390625 6.578125 C-1.11531506 4.39434165 -0.53224167 2.21164502 0 0 Z " fill="#1C3B2F" transform="translate(567,124)"/>
<path d="M0 0 C2 3.75 2 3.75 2 6 C10.25 6.33 18.5 6.66 27 7 C27 7.33 27 7.66 27 8 C17.43 8 7.86 8 -2 8 C-1.33333333 5.33333333 -0.66666667 2.66666667 0 0 Z " fill="#234A3A" transform="translate(278,150)"/>
<path d="M0 0 C1.0546875 1.875 1.0546875 1.875 2 4 C1.125 6 1.125 6 0 8 C0 9.32 0 10.64 0 12 C-1.3125 13.5625 -1.3125 13.5625 -3 15 C-3.556875 15.556875 -4.11375 16.11375 -4.6875 16.6875 C-5.120625 17.120625 -5.55375 17.55375 -6 18 C-5.55397709 11.30965634 -2.92654458 5.97187878 0 0 Z " fill="#1A3F2F" transform="translate(91,108)"/>
<path d="M0 0 C0.66 0 1.32 0 2 0 C0.57091585 9.00323014 -3.09726854 15.89373755 -10 22 C-10 18.0167039 -8.47210865 17.09013581 -6 14 C-3.42857027 9.52312234 -1.48513178 4.95043927 0 0 Z " fill="#8EC2A9" transform="translate(394,172)"/>
<path d="M0 0 C0.33 0.66 0.66 1.32 1 2 C1.99 2.33 2.98 2.66 4 3 C3.34 3 2.68 3 2 3 C0.24265549 7.97361654 -1.32584613 12.7415998 -2 18 C-2.66 18 -3.32 18 -4 18 C-3.65226572 11.36906706 -3.03910346 5.946072 0 0 Z " fill="#173C2D" transform="translate(586,122)"/>
<path d="M0 0 C1.14662109 0.30744141 1.14662109 0.30744141 2.31640625 0.62109375 C10.95001463 2.79248262 19.13746131 3.64451781 28 4 C28 4.33 28 4.66 28 5 C24.85424793 5.05896868 21.7086414 5.09391603 18.5625 5.125 C17.24475586 5.15013672 17.24475586 5.15013672 15.90039062 5.17578125 C9.95240262 5.21967784 4.7618244 4.48881322 -1 3 C-0.67 2.01 -0.34 1.02 0 0 Z " fill="#92C6AA" transform="translate(334,201)"/>
<path d="M0 0 C0.66 0.33 1.32 0.66 2 1 C1.38125 1.5775 0.7625 2.155 0.125 2.75 C-1.81347053 4.80249821 -2.90014249 6.43366582 -4 9 C-4.66 9 -5.32 9 -6 9 C-6.2475 9.969375 -6.495 10.93875 -6.75 11.9375 C-7.1625 12.948125 -7.575 13.95875 -8 15 C-10.125 15.875 -10.125 15.875 -12 16 C-10.57139081 11.50891248 -8.06922708 8.53830684 -4.875 5.1875 C-4.40707031 4.68541016 -3.93914062 4.18332031 -3.45703125 3.66601562 C-2.31098175 2.43810545 -1.15634689 1.21821785 0 0 Z " fill="#1A3D2E" transform="translate(300,102)"/>
<path d="M0 0 C2.475 0.495 2.475 0.495 5 1 C5 1.66 5 2.32 5 3 C5.99 2.67 6.98 2.34 8 2 C8 2.66 8 3.32 8 4 C9.32 3.67 10.64 3.34 12 3 C13 5 14 7 15 9 C9.26800429 7.53025751 4.66416601 4.55513098 0 1 C0 0.67 0 0.34 0 0 Z " fill="#90CAAD" transform="translate(305,224)"/>
<path d="M0 0 C1.65 0.33 3.3 0.66 5 1 C4.32829194 4.8063457 3.27253436 8.35206816 2 12 C1.67 11.34 1.34 10.68 1 10 C0.34 9.67 -0.32 9.34 -1 9 C-0.67 6.03 -0.34 3.06 0 0 Z " fill="#1C4D38" transform="translate(315,130)"/>
<path d="M0 0 C0.66 0 1.32 0 2 0 C2.53364887 2.05922133 3.05142189 4.12256107 3.5625 6.1875 C3.85253906 7.33605469 4.14257812 8.48460937 4.44140625 9.66796875 C4.9838531 12.90368317 5.03447175 14.90789047 4 18 C3.34 18.33 2.68 18.66 2 19 C2 16.69 2 14.38 2 12 C1.34 11.67 0.68 11.34 0 11 C0 7.37 0 3.74 0 0 Z " fill="#89C4A7" transform="translate(310,165)"/>
<path d="M0 0 C2.375 0.3125 2.375 0.3125 5 1 C5.66 1.99 6.32 2.98 7 4 C7.680625 4.28875 8.36125 4.5775 9.0625 4.875 C9.701875 5.24625 10.34125 5.6175 11 6 C11.62109375 8.5703125 11.62109375 8.5703125 12 11 C10.58235006 10.06398754 9.16592432 9.1261208 7.75 8.1875 C6.56664062 7.40439453 6.56664062 7.40439453 5.359375 6.60546875 C3.18907519 5.12865878 1.08586232 3.59310127 -1 2 C-0.67 1.34 -0.34 0.68 0 0 Z " fill="#224637" transform="translate(666,121)"/>
<path d="M0 0 C3.875 1.75 3.875 1.75 5 4 C7.02463255 4.65213292 7.02463255 4.65213292 9 5 C9 5.66 9 6.32 9 7 C10.32 7.33 11.64 7.66 13 8 C13 8.66 13 9.32 13 10 C8.0845485 8.68122033 3.63558224 6.62482608 0 3 C0 2.01 0 1.02 0 0 Z " fill="#203F32" transform="translate(481,226)"/>
<path d="M0 0 C0.66 0 1.32 0 2 0 C1.54636829 1.58468677 1.08688548 3.16769924 0.625 4.75 C0.36976563 5.63171875 0.11453125 6.5134375 -0.1484375 7.421875 C-0.9209934 9.76080572 -1.83625676 11.83442562 -3 14 C-4.61949011 11.42786866 -5.04408751 10.32330841 -4.625 7.25 C-4.41875 6.5075 -4.2125 5.765 -4 5 C-3.01 5 -2.02 5 -1 5 C-0.67 3.35 -0.34 1.7 0 0 Z " fill="#183B2F" transform="translate(535,208)"/>
<path d="M0 0 C1.0326802 2.78823655 1.04509293 3.8677274 0.0625 6.75 C-0.288125 7.4925 -0.63875 8.235 -1 9 C-1.99 9 -2.98 9 -4 9 C-4 9.66 -4 10.32 -4 11 C-4.66 10.67 -5.32 10.34 -6 10 C-5.57507874 8.70414084 -5.13454118 7.4133956 -4.6875 6.125 C-4.44386719 5.40570313 -4.20023437 4.68640625 -3.94921875 3.9453125 C-3 2 -3 2 0 0 Z " fill="#133A2C" transform="translate(286,123)"/>
<path d="M0 0 C1.9789756 3.63616656 2.5251065 6.88425629 3 11 C2.01 11.33 1.02 11.66 0 12 C0 14.64 0 17.28 0 20 C-0.33 20 -0.66 20 -1 20 C-1.11381955 13.23405981 -0.88021369 6.71162938 0 0 Z " fill="#123125" transform="translate(84,130)"/>
<path d="M0 0 C0.99 0.33 1.98 0.66 3 1 C2.34 1 1.68 1 1 1 C0.97421875 1.59167969 0.9484375 2.18335937 0.921875 2.79296875 C0.54295586 8.0720013 -0.10636661 11.10636661 -4 15 C-5.32830615 11.01508155 -4.23204404 9.59951452 -2.5625 5.8125 C-2.08941406 4.72582031 -1.61632812 3.63914062 -1.12890625 2.51953125 C-0.75636719 1.68808594 -0.38382813 0.85664062 0 0 Z " fill="#194430" transform="translate(532,122)"/>
<path d="M0 0 C0.99 0 1.98 0 3 0 C3 0.66 3 1.32 3 2 C3.99 1.67 4.98 1.34 6 1 C5.67 3.31 5.34 5.62 5 8 C5.66 8.33 6.32 8.66 7 9 C6.34 9 5.68 9 5 9 C4.67 9.66 4.34 10.32 4 11 C2.68 7.37 1.36 3.74 0 0 Z " fill="#1C4232" transform="translate(448,147)"/>
<path d="M0 0 C2.97 0.495 2.97 0.495 6 1 C6 1.66 6 2.32 6 3 C6.598125 3.12375 7.19625 3.2475 7.8125 3.375 C10 4 10 4 13 6 C13 6.66 13 7.32 13 8 C13.66 8 14.32 8 15 8 C14.67 8.99 14.34 9.98 14 11 C13.57589844 10.61328125 13.15179688 10.2265625 12.71484375 9.828125 C8.69695194 6.2605903 4.74596229 3.51826571 0 1 C0 0.67 0 0.34 0 0 Z " fill="#214334" transform="translate(371,120)"/>
<path d="M0 0 C0.66 0.33 1.32 0.66 2 1 C0.38405168 3.04119788 -1.2856382 5.04072937 -3 7 C-3.66 7 -4.32 7 -5 7 C-5.33 7.99 -5.66 8.98 -6 10 C-7.66666667 10 -9.33333333 10 -11 10 C-7.50640535 6.40365256 -3.88901869 3.16548033 0 0 Z " fill="#183529" transform="translate(105,94)"/>
<path d="M0 0 C0.515625 0.66 1.03125 1.32 1.5625 2 C4.61208585 5.75333644 7.7986681 9.37602035 11 13 C8 13 8 13 5.5 10.6875 C4.675 9.800625 3.85 8.91375 3 8 C2.401875 7.505 1.80375 7.01 1.1875 6.5 C-0.51035354 4.3553429 -0.21486964 2.65005894 0 0 Z " fill="#88C1A6" transform="translate(316,183)"/>
<path d="M0 0 C0.66 0.66 1.32 1.32 2 2 C2.66 1.67 3.32 1.34 4 1 C4.33 2.65 4.66 4.3 5 6 C4.40832031 5.79503906 3.81664062 5.59007813 3.20703125 5.37890625 C-0.83660816 4.0002429 -4.76855249 2.68249153 -9 2 C-5.54754176 -0.30163882 -4.05261287 -0.34490322 0 0 Z " fill="#25483A" transform="translate(216,120)"/>
<path d="M0 0 C0.33 0.66 0.66 1.32 1 2 C1.66 2 2.32 2 3 2 C3.66 3.98 4.32 5.96 5 8 C4.01 8.495 4.01 8.495 3 9 C0.875 8.0625 0.875 8.0625 -1 7 C-0.67 4.69 -0.34 2.38 0 0 Z " fill="#14392C" transform="translate(418,116)"/>
<path d="M0 0 C-2.17424117 2.50037734 -3.73045798 3.43628586 -7 4 C-7 3.34 -7 2.68 -7 2 C-8.1446875 2.5259375 -8.1446875 2.5259375 -9.3125 3.0625 C-12 4 -12 4 -15 3 C-15 2.34 -15 1.68 -15 1 C-13.43784452 0.83013455 -11.8752548 0.66426036 -10.3125 0.5 C-9.44238281 0.4071875 -8.57226562 0.314375 -7.67578125 0.21875 C-5.10276661 0.00840136 -2.58015636 -0.03719144 0 0 Z " fill="#16352A" transform="translate(357,82)"/>
<path d="M0 0 C0.66 0 1.32 0 2 0 C2.33 0.66 2.66 1.32 3 2 C3.99 2.33 4.98 2.66 6 3 C5.979375 3.9075 5.95875 4.815 5.9375 5.75 C5.9889755 8.42672588 6.2215017 10.46988052 7 13 C4.64283596 10.84545751 3.21033856 8.80280126 1.8125 5.9375 C1.29623047 4.89916016 1.29623047 4.89916016 0.76953125 3.83984375 C0 2 0 2 0 0 Z " fill="#90C4AB" transform="translate(281,192)"/>
<path d="M0 0 C0.66 0 1.32 0 2 0 C1.4375 2.3125 1.4375 2.3125 0 5 C-5.79310345 8 -5.79310345 8 -9 8 C-9.33 7.01 -9.66 6.02 -10 5 C-5.545 4.505 -5.545 4.505 -1 4 C-0.67 2.68 -0.34 1.36 0 0 Z " fill="#1C3F2E" transform="translate(614,229)"/>
<path d="M0 0 C2.171875 -0.328125 2.171875 -0.328125 4.75 -0.25 C5.63945312 -0.22421875 6.52890625 -0.1984375 7.4453125 -0.171875 C10.34543153 0.02324004 13.1553642 0.40112931 16 1 C16 1.33 16 1.66 16 2 C10.06 2.33 4.12 2.66 -2 3 C-1.34 2.01 -0.68 1.02 0 0 Z " fill="#1F3F32" transform="translate(345,115)"/>
<path d="M0 0 C1.5625 1.25 1.5625 1.25 3 3 C2.6875 5.1875 2.6875 5.1875 2 7 C0.68 7.33 -0.64 7.66 -2 8 C-1.67 6.35 -1.34 4.7 -1 3 C-1.66 2.67 -2.32 2.34 -3 2 C-2.01 1.34 -1.02 0.68 0 0 Z " fill="#153E2D" transform="translate(523,225)"/>
<path d="M0 0 C0.66 0.66 1.32 1.32 2 2 C-1.3 4.64 -4.6 7.28 -8 10 C-8.33 9.01 -8.66 8.02 -9 7 C-8.01 7 -7.02 7 -6 7 C-6 6.34 -6 5.68 -6 5 C-5.34 5 -4.68 5 -4 5 C-4 4.01 -4 3.02 -4 2 C-2.68 1.34 -1.36 0.68 0 0 Z " fill="#8CC5A8" transform="translate(405,218)"/>
<path d="M0 0 C2.81645906 3.18382329 3.72317437 5.75534029 4 10 C3.34 10.66 2.68 11.32 2 12 C-0.875 5.375 -0.875 5.375 -2 2 C-1.34 1.34 -0.68 0.68 0 0 Z " fill="#133D2A" transform="translate(490,158)"/>
<path d="M0 0 C-2.16099373 2.16099373 -3.5210418 2.71563716 -6.375 3.6875 C-7.14585937 3.95949219 -7.91671875 4.23148438 -8.7109375 4.51171875 C-11.20055308 5.04278009 -12.61553018 4.81115526 -15 4 C-14.34 4 -13.68 4 -13 4 C-12.67 3.34 -12.34 2.68 -12 2 C-10.0625 1.4375 -10.0625 1.4375 -8 1 C-5.29120665 -0.35439668 -2.99066732 -0.06501451 0 0 Z " fill="#92CAAC" transform="translate(384,234)"/>
<path d="M0 0 C4.23287649 1.5117416 5.63125215 4.3322614 8 8 C8.99 8.66 9.98 9.32 11 10 C11 10.66 11 11.32 11 12 C7.3571729 10.52513858 5.59170887 8.55477485 3.25 5.4375 C2.63640625 4.63183594 2.0228125 3.82617188 1.390625 2.99609375 C0 1 0 1 0 0 Z " fill="#8CBFA4" transform="translate(289,207)"/>
<path d="M0 0 C0.33 0.99 0.66 1.98 1 3 C0.01 3.33 -0.98 3.66 -2 4 C-3.22520264 7.00847418 -3.22520264 7.00847418 -4 10 C-4.33 10 -4.66 10 -5 10 C-4.67 7.03 -4.34 4.06 -4 1 C-2.68 0.67 -1.36 0.34 0 0 Z " fill="#1B3E2F" transform="translate(196,124)"/>
<path d="M0 0 C-0.99 0.66 -1.98 1.32 -3 2 C-4.05149344 2.86316626 -5.09320434 3.73838162 -6.125 4.625 C-9 7 -9 7 -10 7 C-10 5.35 -10 3.7 -10 2 C-6.5980513 -0.09350689 -3.94727588 -0.17942163 0 0 Z " fill="#1E3E32" transform="translate(132,122)"/>
<path d="M0 0 C0.66 0 1.32 0 2 0 C2.36923077 4.55384615 2.36923077 4.55384615 0.5 6.8125 C0.005 7.204375 -0.49 7.59625 -1 8 C-2.32 6.68 -3.64 5.36 -5 4 C-4.0409375 3.8453125 -4.0409375 3.8453125 -3.0625 3.6875 C-2.381875 3.460625 -1.70125 3.23375 -1 3 C-0.67 2.01 -0.34 1.02 0 0 Z " fill="#113625" transform="translate(541,192)"/>
<path d="M0 0 C-1.62249941 0.83819158 -3.24808497 1.6704116 -4.875 2.5 C-6.23238281 3.19609375 -6.23238281 3.19609375 -7.6171875 3.90625 C-10 5 -10 5 -12 5 C-12 4.01 -12 3.02 -12 2 C-10.75579353 1.4654744 -9.50429064 0.94791389 -8.25 0.4375 C-7.55390625 0.14746094 -6.8578125 -0.14257812 -6.140625 -0.44140625 C-3.69987216 -1.07831803 -2.3596345 -0.80248831 0 0 Z " fill="#1E4034" transform="translate(339,120)"/>
<path d="M0 0 C0.66 0.66 1.32 1.32 2 2 C-3.94 2.495 -3.94 2.495 -10 3 C-10.33 2.34 -10.66 1.68 -11 1 C-3.36565097 -1.49584488 -3.36565097 -1.49584488 0 0 Z " fill="#1B3C2F" transform="translate(184,234)"/>
<path d="M0 0 C0.66 0.33 1.32 0.66 2 1 C1.01 3.31 0.02 5.62 -1 8 C-2.32 7.34 -3.64 6.68 -5 6 C-3.35 4.02 -1.7 2.04 0 0 Z " fill="#133326" transform="translate(576,102)"/>
<path d="M0 0 C0.33 0.66 0.66 1.32 1 2 C2.918125 1.690625 2.918125 1.690625 4.875 1.375 C7.0546875 1.0234375 7.0546875 1.0234375 9 1 C9.66 1.66 10.32 2.32 11 3 C10 4 10 4 6.6875 4.125 C3.85351237 4.02893262 1.66404901 3.85249568 -1 3 C-0.67 2.01 -0.34 1.02 0 0 Z " fill="#142F24" transform="translate(91,233)"/>
<path d="M0 0 C0.99 0 1.98 0 3 0 C3.185625 0.9590625 3.185625 0.9590625 3.375 1.9375 C3.684375 2.9584375 3.684375 2.9584375 4 4 C4.66 4.33 5.32 4.66 6 5 C5.67 5.66 5.34 6.32 5 7 C3.0625 6.3125 3.0625 6.3125 1 5 C0.25 2.375 0.25 2.375 0 0 Z " fill="#1A3E2F" transform="translate(84,228)"/>
<path d="M0 0 C0 0.66 0 1.32 0 2 C0.66 2.33 1.32 2.66 2 3 C-1.55242882 4.18414294 -2.69830562 3.69535532 -6.1875 2.5625 C-7.08855469 2.27503906 -7.98960937 1.98757812 -8.91796875 1.69140625 C-9.60503906 1.46324219 -10.29210937 1.23507813 -11 1 C-10.38253906 0.84789063 -9.76507813 0.69578125 -9.12890625 0.5390625 C-7.72325215 0.18313541 -6.32520107 -0.20448452 -4.9375 -0.625 C-3 -1 -3 -1 0 0 Z " fill="#224B3A" transform="translate(148,121)"/>
<path d="M0 0 C0.33 0.66 0.66 1.32 1 2 C0.34 2 -0.32 2 -1 2 C-1 2.66 -1 3.32 -1 4 C-1.99 4.495 -1.99 4.495 -3 5 C-3 5.66 -3 6.32 -3 7 C-3.99 7.33 -4.98 7.66 -6 8 C-6 4 -6 4 -4.6875 2.3125 C-3 1 -3 1 0 0 Z " fill="#173A2E" transform="translate(437,86)"/>
<path d="M0 0 C0.66 0.66 1.32 1.32 2 2 C-2.12168689 3.62950412 -4.70700357 4.26264601 -9 3 C-8.67 2.34 -8.34 1.68 -8 1 C-6.865625 1.020625 -5.73125 1.04125 -4.5625 1.0625 C-1.18424326 1.41577477 -1.18424326 1.41577477 0 0 Z " fill="#1A3A2E" transform="translate(257,233)"/>
<path d="M0 0 C0.33 0.66 0.66 1.32 1 2 C0.06553465 4.03144641 -0.93224776 6.03533587 -2 8 C-2.99 8 -3.98 8 -5 8 C-5 6.68 -5 5.36 -5 4 C-4.34 4 -3.68 4 -3 4 C-3 3.34 -3 2.68 -3 2 C-2.01 1.34 -1.02 0.68 0 0 Z " fill="#204738" transform="translate(509,189)"/>
<path d="M0 0 C0.33 0 0.66 0 1 0 C1.33 4.95 1.66 9.9 2 15 C1.01 15 0.02 15 -1 15 C-0.67 10.05 -0.34 5.1 0 0 Z " fill="#22463A" transform="translate(682,148)"/>
<path d="M0 0 C0.66 0.66 1.32 1.32 2 2 C0.38405168 4.04119788 -1.2856382 6.04072937 -3 8 C-3.66 8 -4.32 8 -5 8 C-3.375 2.25 -3.375 2.25 0 0 Z " fill="#1E3E31" transform="translate(625,125)"/>
<path d="M0 0 C0.33 0 0.66 0 1 0 C0.85866501 1.77119803 0.71176792 3.54195287 0.5625 5.3125 C0.48128906 6.29863281 0.40007813 7.28476563 0.31640625 8.30078125 C0 11 0 11 -1 14 C-1.66 13.67 -2.32 13.34 -3 13 C-2.45144652 8.428721 -1.58255197 4.32564205 0 0 Z " fill="#123521" transform="translate(567,124)"/>
<path d="M0 0 C0 1.65 0 3.3 0 5 C-2.64738916 6.4606285 -3.89448334 7 -7 7 C-7 6.34 -7 5.68 -7 5 C-1.4047619 0 -1.4047619 0 0 0 Z " fill="#153D28" transform="translate(603,99)"/>
<path d="M0 0 C-1 3 -1 3 -4 5 C-6.6875 4.625 -6.6875 4.625 -9 4 C-3 0 -3 0 0 0 Z " fill="#8CC4A9" transform="translate(375,200)"/>
<path d="M0 0 C0.99 0.33 1.98 0.66 3 1 C1.68 4.63 0.36 8.26 -1 12 C-1.33 12 -1.66 12 -2 12 C-1.85904936 10.3745692 -1.71207913 8.74965949 -1.5625 7.125 C-1.48128906 6.22007812 -1.40007813 5.31515625 -1.31640625 4.3828125 C-1 2 -1 2 0 0 Z " fill="#173524" transform="translate(549,170)"/>
<path d="M0 0 C0.66 0 1.32 0 2 0 C2.99 3.3 3.98 6.6 5 10 C0.66666667 5.66666667 0.66666667 5.66666667 -1 3 C-0.67 2.01 -0.34 1.02 0 0 Z " fill="#193F2E" transform="translate(467,100)"/>
<path d="M0 0 C0.33 0.99 0.66 1.98 1 3 C-2.465 4.485 -2.465 4.485 -6 6 C-6 5.01 -6 4.02 -6 3 C-5.01 3 -4.02 3 -3 3 C-3 2.34 -3 1.68 -3 1 C-2.01 0.67 -1.02 0.34 0 0 Z " fill="#1B4639" transform="translate(520,231)"/>
<path d="M0 0 C0.66 0 1.32 0 2 0 C2 0.66 2 1.32 2 2 C2.66 2 3.32 2 4 2 C4.33 4.31 4.66 6.62 5 9 C4.34 9 3.68 9 3 9 C2.01 6.03 1.02 3.06 0 0 Z " fill="#19362B" transform="translate(459,176)"/>
<path d="M0 0 C0.99 0.33 1.98 0.66 3 1 C4.17755913 3.94389782 4.03348696 4.89953913 3 8 C2.34 8 1.68 8 1 8 C0.67 5.36 0.34 2.72 0 0 Z " fill="#1A3F33" transform="translate(680,139)"/>
<path d="M0 0 C2 1 2 1 2.8515625 3.06640625 C3.10679687 3.89011719 3.36203125 4.71382812 3.625 5.5625 C3.88539063 6.38878906 4.14578125 7.21507812 4.4140625 8.06640625 C4.60742188 8.70449219 4.80078125 9.34257812 5 10 C4.34 10 3.68 10 3 10 C1.68 7.03 0.36 4.06 -1 1 C-0.67 0.67 -0.34 0.34 0 0 Z " fill="#153928" transform="translate(481,136)"/>
<path d="M0 0 C2 2 2 2 3 5 C2.0625 7.1875 2.0625 7.1875 1 9 C0.01 6.36 -0.98 3.72 -2 1 C-1.34 0.67 -0.68 0.34 0 0 Z " fill="#143629" transform="translate(443,129)"/>
<path d="M0 0 C0.66 0.99 1.32 1.98 2 3 C0.71937515 4.7074998 -0.61767557 6.37373596 -2 8 C-2.66 8 -3.32 8 -4 8 C-3.34 6.02 -2.68 4.04 -2 2 C-1.34 2 -0.68 2 0 2 C0 1.34 0 0.68 0 0 Z " fill="#133629" transform="translate(592,110)"/>
<path d="M0 0 C2.31 1.65 4.62 3.3 7 5 C6.67 6.32 6.34 7.64 6 9 C6 8.34 6 7.68 6 7 C5.38125 6.773125 4.7625 6.54625 4.125 6.3125 C1.38589791 4.62070165 0.94975528 3.00755839 0 0 Z " fill="#193C2D" transform="translate(405,101)"/>
<path d="M0 0 C0.99 0 1.98 0 3 0 C2.67 1.98 2.34 3.96 2 6 C1.01 6 0.02 6 -1 6 C-1.042721 4.33388095 -1.04063832 2.66617115 -1 1 C-0.67 0.67 -0.34 0.34 0 0 Z " fill="#18372A" transform="translate(569,117)"/>
<path d="M0 0 C0.33 0 0.66 0 1 0 C1.33 2.64 1.66 5.28 2 8 C1.01 8.495 1.01 8.495 0 9 C-1.125 6.1875 -1.125 6.1875 -2 3 C-1.34 2.01 -0.68 1.02 0 0 Z " fill="#163327" transform="translate(431,95)"/>
<path d="M0 0 C0.99 0 1.98 0 3 0 C2.67 1.32 2.34 2.64 2 4 C0.35 4.33 -1.3 4.66 -3 5 C-1.125 1.125 -1.125 1.125 0 0 Z " fill="#214B39" transform="translate(713,230)"/>
<path d="M0 0 C0.66 0 1.32 0 2 0 C2.33 1.32 2.66 2.64 3 4 C1.35 4.66 -0.3 5.32 -2 6 C-1.125 1.125 -1.125 1.125 0 0 Z " fill="#1F4D3C" transform="translate(258,229)"/>
<path d="M0 0 C0.66 0 1.32 0 2 0 C2.33 0.99 2.66 1.98 3 3 C2.34 3 1.68 3 1 3 C0.34 4.65 -0.32 6.3 -1 8 C-1.33 8 -1.66 8 -2 8 C-1.125 1.125 -1.125 1.125 0 0 Z " fill="#143E2A" transform="translate(509,183)"/>
<path d="M0 0 C0.66 0.33 1.32 0.66 2 1 C1.4140625 7.15234375 1.4140625 7.15234375 1 9 C0.01 9.495 0.01 9.495 -1 10 C-0.67 6.7 -0.34 3.4 0 0 Z " fill="#19362B" transform="translate(277,145)"/>
<path d="M0 0 C2.12046792 3.53411321 2.53199289 6.94393835 3 11 C2.01 10.67 1.02 10.34 0 10 C-0.33 9.01 -0.66 8.02 -1 7 C-0.67 6.34 -0.34 5.68 0 5 C0.0396713 3.33380554 0.04384447 1.66608987 0 0 Z " fill="#163128" transform="translate(715,130)"/>
<path d="M0 0 C0.99 0.33 1.98 0.66 3 1 C2.25 2.9375 2.25 2.9375 1 5 C-1.125 5.75 -1.125 5.75 -3 6 C-2.42655063 3.13275314 -2.1385485 2.1385485 0 0 Z " fill="#204635" transform="translate(596,106)"/>
<path d="M0 0 C3.96 1.98 3.96 1.98 8 4 C8 4.99 8 5.98 8 7 C6.66144944 6.21718695 5.32926356 5.42348123 4 4.625 C3.2575 4.18414062 2.515 3.74328125 1.75 3.2890625 C1.1725 2.86367187 0.595 2.43828125 0 2 C0 1.34 0 0.68 0 0 Z " fill="#1B3D31" transform="translate(387,89)"/>
<path d="M0 0 C-3.44069624 2.29379749 -4.72290301 3 -9 3 C-9 2.34 -9 1.68 -9 1 C-2.25 -1.125 -2.25 -1.125 0 0 Z " fill="#183729" transform="translate(124,88)"/>
<path d="M0 0 C0.66 0 1.32 0 2 0 C1.34 2.64 0.68 5.28 0 8 C-0.66 7.67 -1.32 7.34 -2 7 C-2 5.35 -2 3.7 -2 2 C-1.34 2 -0.68 2 0 2 C0 1.34 0 0.68 0 0 Z " fill="#173A2E" transform="translate(555,156)"/>
<path d="M0 0 C0.99 0.33 1.98 0.66 3 1 C2.01 3.97 1.02 6.94 0 10 C-0.33 10 -0.66 10 -1 10 C-1.08004482 6.4780279 -1.04005702 3.38018531 0 0 Z " fill="#1A362B" transform="translate(317,132)"/>
<path d="M0 0 C0.86625 0.556875 0.86625 0.556875 1.75 1.125 C-1.715 2.61 -1.715 2.61 -5.25 4.125 C-5.58 3.135 -5.91 2.145 -6.25 1.125 C-2.80384615 -1.09038462 -2.80384615 -1.09038462 0 0 Z " fill="#204738" transform="translate(202.25,121.875)"/>
<path d="M0 0 C0.66 0 1.32 0 2 0 C2.66 1.65 3.32 3.3 4 5 C2.35 4.67 0.7 4.34 -1 4 C-1 1 -1 1 0 0 Z " fill="#123526" transform="translate(435,108)"/>
<path d="M0 0 C1.98 0.66 3.96 1.32 6 2 C5.67 3.32 5.34 4.64 5 6 C5 5.34 5 4.68 5 4 C3.68 4 2.36 4 1 4 C0.67 2.68 0.34 1.36 0 0 Z " fill="#183529" transform="translate(159,90)"/>
<path d="M0 0 C0.33 0.66 0.66 1.32 1 2 C-1.25 3.5625 -1.25 3.5625 -4 5 C-5.32 4.67 -6.64 4.34 -8 4 C-5.36 2.68 -2.72 1.36 0 0 Z " fill="#173525" transform="translate(189,89)"/>
</svg>
